<?xml version="1.0" encoding="UTF-8"?>
<svg width="128px" height="128px" viewBox="0 0 128 128" version="1.1" xmlns="http://www.w3.org/2000/svg" xmlns:xlink="http://www.w3.org/1999/xlink">
    <title>编组 21</title>
    <g id="页面-1" stroke="none" stroke-width="1" fill="none" fill-rule="evenodd">
        <g id="授权店铺tiktok备份-3" transform="translate(-24.000000, -470.000000)">
            <g id="编组-21" transform="translate(24.000000, 470.000000)">
                <rect id="矩形" fill="#1F0A1C" x="0" y="0" width="128" height="128" rx="32"></rect>
                <g id="编组-5" transform="translate(28.000000, 24.000000)" fill-rule="nonzero">
                    <g id="TikTok_logo">
                        <path d="M52.3567123,28.8169863 C57.5112329,32.499726 63.8257534,34.6665753 70.6457534,34.6665753 L70.6457534,21.549589 C69.3550685,21.549863 68.0676712,21.4153425 66.8049315,21.1479452 L66.8049315,31.4728767 C59.9854795,31.4728767 53.6717808,29.3060274 48.5158904,25.6235616 L48.5158904,52.3915068 C48.5158904,65.7821918 37.6550685,76.6367123 24.2583562,76.6367123 C19.259726,76.6367123 14.6136986,75.1263014 10.7542466,72.5358904 C15.1591781,77.0375342 21.3021918,79.830137 28.0983562,79.830137 C41.4958904,79.830137 52.3572603,68.9756164 52.3572603,55.5843836 L52.3572603,28.8169863 L52.3567123,28.8169863 Z M57.0947945,15.5835616 C54.4605479,12.7071233 52.7309589,8.98986301 52.3567123,4.88027397 L52.3567123,3.19315068 L48.7169863,3.19315068 C49.6331507,8.41643836 52.7580822,12.8789041 57.0947945,15.5835616 L57.0947945,15.5835616 Z M19.2276712,62.260274 C17.7558904,60.3315068 16.9605479,57.9720548 16.9641096,55.5460274 C16.9641096,49.4216438 21.9317808,44.4558904 28.0605479,44.4558904 C29.2027397,44.4556164 30.3380822,44.630411 31.4265753,44.9756164 L31.4265753,31.5654795 C30.1545205,31.3912329 28.8706849,31.3172603 27.5873973,31.3443836 L27.5873973,41.7821918 C26.4980822,41.4369863 25.3621918,41.2616438 24.219726,41.2627397 C18.0909589,41.2627397 13.1235616,46.2279452 13.1235616,52.3531507 C13.1235616,56.6841096 15.6065753,60.4336986 19.2276712,62.260274 Z" id="形状" fill="#FF004F"></path>
                        <path d="M48.5158904,25.6232877 C53.6717808,29.3057534 59.9854795,31.4726027 66.8049315,31.4726027 L66.8049315,21.1476712 C62.9983562,20.3372603 59.6284932,18.3490411 57.0947945,15.5835616 C52.7578082,12.8786301 49.6331507,8.41616438 48.7169863,3.19315068 L39.1564384,3.19315068 L39.1564384,55.5838356 C39.1347945,61.6915068 34.1756164,66.6369863 28.06,66.6369863 C24.4561644,66.6369863 21.2545205,64.92 19.2268493,62.260274 C15.6060274,60.4336986 13.1230137,56.6838356 13.1230137,52.3534247 C13.1230137,46.2287671 18.090411,41.2630137 24.2191781,41.2630137 C25.3934247,41.2630137 26.5252055,41.4457534 27.5868493,41.7824658 L27.5868493,31.3446575 C14.4254795,31.6164384 3.84054795,42.3649315 3.84054795,55.5841096 C3.84054795,62.1830137 6.47643836,68.1652055 10.7545205,72.5361644 C14.6139726,75.1263014 19.26,76.6369863 24.2586301,76.6369863 C37.6556164,76.6369863 48.5161644,65.7819178 48.5161644,52.3915068 L48.5161644,25.6232877 L48.5158904,25.6232877 Z" id="路径" fill="#FFFFFF"></path>
                        <path d="M66.8049315,21.1476712 L66.8049315,18.3558904 C63.3723288,18.3610959 60.0071233,17.400274 57.0947945,15.5832877 C59.6728767,18.4043836 63.0676712,20.349589 66.8049315,21.1476712 Z M48.7169863,3.19315068 C48.629589,2.6939726 48.5624658,2.19150685 48.5158904,1.68712329 L48.5158904,0 L35.3153425,0 L35.3153425,52.3912329 C35.2942466,58.4980822 30.3353425,63.4435616 24.2191781,63.4435616 C22.4235616,63.4435616 20.7282192,63.0175342 19.2268493,62.2605479 C21.2545205,64.92 24.4561644,66.6367123 28.06,66.6367123 C34.1750685,66.6367123 39.1350685,61.6917808 39.1564384,55.5841096 L39.1564384,3.19315068 L48.7169863,3.19315068 Z M27.5873973,31.3446575 L27.5873973,28.3726027 C26.4843836,28.2219178 25.3723288,28.1463014 24.2589041,28.1468464 C10.8608219,28.1468464 0,39.0016438 0,52.3912329 C0,60.7857534 4.26849315,68.1838356 10.7547945,72.5356164 C6.47671233,68.1649315 3.84082192,62.1824658 3.84082192,55.5838356 C3.84082192,42.3649315 14.4254795,31.6164384 27.5873973,31.3446575 Z" id="形状" fill="#00F2EA"></path>
                    </g>
                </g>
            </g>
        </g>
    </g>
</svg>