<?xml version="1.0" encoding="UTF-8"?>
<svg width="128px" height="128px" viewBox="0 0 128 128" version="1.1" xmlns="http://www.w3.org/2000/svg" xmlns:xlink="http://www.w3.org/1999/xlink">
    <title>编组 3</title>
    <defs>
        <filter x="0.0%" y="0.0%" width="100.0%" height="100.0%" filterUnits="objectBoundingBox" id="filter-1">
            <feGaussianBlur stdDeviation="0" in="SourceGraphic"></feGaussianBlur>
        </filter>
    </defs>
    <g id="页面-1" stroke="none" stroke-width="1" fill="none" fill-rule="evenodd">
        <g id="授权店铺tiktok备份-3" transform="translate(-188.000000, -774.000000)">
            <g id="编组-3" transform="translate(188.000000, 774.000000)">
                <rect id="矩形" fill="#EE4D2D" x="0" y="0" width="128" height="128" rx="32"></rect>
                <g id="shopee" transform="translate(31.000000, 25.000000)" fill="#FFFFFF">
                    <path d="M39.2632876,64.9736485 C42.6228654,63.5008478 44.7922611,60.5587294 45.2261402,56.8869277 C45.9292035,50.9367631 42.2185916,47.1413158 32.424218,43.9123495 C27.6801577,42.2405217 25.4453319,40.0509745 25.4975765,37.0327282 C25.6956085,33.6913115 28.7096255,31.2542244 32.7068365,31.1728721 C35.4772941,31.2298436 38.5545022,31.9289264 41.5471238,33.9910962 C41.902636,34.222714 42.1529126,34.1863915 42.3551739,33.870436 C42.4681218,33.6823553 42.6497341,33.3870488 42.8405513,33.0763177 C43.1174478,32.6257701 43.4139982,32.1428805 43.5508294,31.9085261 C43.7073145,31.649542 43.7379149,31.3154253 43.3416021,31.0171334 C42.7743748,30.5822591 41.1834017,29.7023104 40.3293266,29.3331151 C38.0086703,28.3295208 35.4041516,27.6976097 32.6269769,27.7032932 C26.7758282,27.7287077 22.1649917,31.5525163 21.7803221,36.6550742 C21.5286771,40.337076 23.2933014,43.3279561 27.0820812,45.6080606 C27.8849069,46.0914477 32.2316593,47.8772186 33.9604586,48.4330018 C39.3988748,50.1822015 42.2225721,53.317625 41.5580703,56.9732557 C40.9550181,60.2902915 37.5767815,62.4320722 32.9202931,62.4972536 C29.2280912,62.3519638 25.9058309,60.7973131 23.3295243,58.727431 C23.2821559,58.6908598 23.0987026,58.5443261 22.9848591,58.45352 C22.9418692,58.4191878 22.908781,58.3928167 22.8967398,58.3831141 C22.5781472,58.125374 22.2305463,58.1422913 22.0189805,58.4756617 C21.9454897,58.5905999 21.6877247,58.9779564 21.4087135,59.3974061 C21.0924346,59.8725834 20.7488142,60.3890587 20.6152422,60.5962957 C20.3790965,60.9396175 20.5054538,61.1284445 20.7507548,61.3389157 C21.8273422,62.2658845 23.2554116,63.2796789 24.2294006,63.7929201 C26.9051959,65.2020322 29.809748,65.9745062 32.8998928,66.095664 C34.8866811,66.2347342 37.3934277,65.7936403 39.2632876,64.9736485 Z M44.8892868,18.3363689 C44.6474688,10.6102355 39.4797296,4.43783218 33.1399693,4.43783218 C26.8002091,4.43783218 21.6323703,10.6102355 21.3904031,18.3363689 L44.8892868,18.3363689 Z M63.5565383,69.6460591 C63.2699393,73.1101262 60.5574484,75.9042182 57.208817,75.9980097 L56.9662527,76 L8.5762407,75.9925365 L8.57514605,75.9925365 C5.28373499,75.8654079 2.86341589,73.1096286 2.53322989,69.6881035 L2.50087554,69.071617 L0.337204933,19.9018417 L0.337481482,19.9015431 C0.334439504,19.8643997 0.333333333,19.8269826 0.333333333,19.7889933 C0.333333333,18.995696 0.948916764,18.3509477 1.71355907,18.3366675 L1.71355907,18.3363689 L16.9665525,18.3363689 C17.340425,8.13463661 24.4384537,0 33.1399693,0 C41.8411864,0 48.93924,8.13463661 49.3131622,18.3363689 L64.5225662,18.3363689 L64.5439616,18.3363689 C65.3211626,18.3363689 65.9505858,18.9865657 65.9505858,19.7889933 C65.9505858,19.8032237 65.9505858,19.8173546 65.9505858,19.8314358 C65.9498395,19.8422579 65.9493419,19.8530551 65.9488444,19.8638275 L65.9488444,19.8646982 L63.5781825,69.2281021 L63.5565383,69.6460591 Z" id="shopee-logo" filter="url(#filter-1)"></path>
                </g>
            </g>
        </g>
    </g>
</svg>